<?xml version="1.0" standalone="no"?>
<!DOCTYPE svg PUBLIC "-//W3C//DTD SVG 1.1//EN" "http://www.w3.org/Graphics/SVG/1.1/DTD/svg11.dtd">
<svg xmlns="http://www.w3.org/2000/svg" id="Layer_2" data-name="Layer 2" viewBox="0 0 4263.45 1042.69" width="4263.4501953125" height="1042.68994140625">
  <defs>
    <style>
      .cls-1 {
        letter-spacing: .38em;
      }

      .cls-2, .cls-3, .cls-4, .cls-5, .cls-6, .cls-7, .cls-8, .cls-9, .cls-10, .cls-11 {
        isolation: isolate;
      }

      .cls-2, .cls-3, .cls-5, .cls-6, .cls-7, .cls-8, .cls-9, .cls-10, .cls-11 {
        font-family: CodecPro-ExtraBold, 'Codec Pro';
        font-weight: 700;
      }

      .cls-2, .cls-3, .cls-5, .cls-6, .cls-7, .cls-9, .cls-11 {
        font-size: 398px;
      }

      .cls-2, .cls-12, .cls-13, .cls-6, .cls-8, .cls-9, .cls-11 {
        stroke: #231f20;
      }

      .cls-2, .cls-12, .cls-13, .cls-8 {
        stroke-miterlimit: 10;
      }

      .cls-2, .cls-13, .cls-6, .cls-8, .cls-9, .cls-11 {
        fill: none;
      }

      .cls-3, .cls-12, .cls-5, .cls-7, .cls-10 {
        fill: #231f20;
      }

      .cls-3, .cls-11 {
        letter-spacing: -.04em;
      }

      .cls-14 {
        letter-spacing: .41em;
      }

      .cls-13 {
        stroke-width: 10px;
      }

      .cls-15 {
        letter-spacing: .39em;
      }

      .cls-16 {
        letter-spacing: .4em;
      }

      .cls-5, .cls-9 {
        letter-spacing: 0em;
      }

      .cls-17 {
        letter-spacing: .4em;
      }

      .cls-18 {
        font-family: SoinSansNeue-Light, 'Soin Sans Neue';
        font-size: 100px;
        font-weight: 300;
      }

      .cls-19 {
        letter-spacing: .39em;
      }

      .cls-8, .cls-10 {
        font-size: 85px;
        letter-spacing: .29em;
      }
    </style>
  </defs>
  <g id="Layer_1-2" data-name="Layer 1-2">
    <g class="cls-4">
      <text class="cls-10" transform="translate(1011.22 71.22)"><tspan x="0" y="0" xml:space="preserve">  </tspan></text>
      <text class="cls-8" transform="translate(1011.22 71.22)"><tspan x="0" y="0" xml:space="preserve">  </tspan></text>
    </g>
    <g>
      <g class="cls-4">
        <text class="cls-7" transform="translate(547.36 701.07)"><tspan x="0" y="0">GUE</tspan></text>
        <text class="cls-2" transform="translate(547.36 701.07)"><tspan x="0" y="0">GUE</tspan></text>
        <text class="cls-7" transform="translate(1349 701.07)"><tspan x="0" y="0">S</tspan></text>
        <text class="cls-2" transform="translate(1349 701.07)"><tspan x="0" y="0">S</tspan></text>
        <text class="cls-7" transform="translate(1591.92 701.07)"><tspan x="0" y="0">T</tspan></text>
        <text class="cls-2" transform="translate(1591.92 701.07)"><tspan x="0" y="0">T</tspan></text>
        <text class="cls-7" transform="translate(1815.4 701.07)"><tspan x="0" y="0"> </tspan></text>
        <text class="cls-6" transform="translate(1815.4 701.07)"><tspan x="0" y="0"> </tspan></text>
        <text class="cls-5" transform="translate(1911.02 701.07)"><tspan x="0" y="0">S</tspan></text>
        <text class="cls-9" transform="translate(1911.02 701.07)"><tspan x="0" y="0">S</tspan></text>
        <text class="cls-3" transform="translate(2150.44 701.07)"><tspan x="0" y="0">A</tspan></text>
        <text class="cls-11" transform="translate(2150.44 701.07)"><tspan x="0" y="0">A</tspan></text>
        <text class="cls-7" transform="translate(2412.4 701.07)"><tspan x="0" y="0">GE</tspan></text>
        <text class="cls-6" transform="translate(2412.4 701.07)"><tspan x="0" y="0">GE</tspan></text>
      </g>
      <g>
        <polyline class="cls-12" points="94.89 458.88 94.89 834.61 .5 834.61 .5 552.54"/>
        <polyline class="cls-12" points=".5 848.35 180.23 848.35 180.23 946.35 97.05 946.35"/>
        <polyline class="cls-12" points="196.14 656.69 196.14 941.65 289.26 848.53 289.26 751.07"/>
        <polyline class="cls-12" points="146.24 653.43 146.24 748.54 180.23 748.54 180.23 653.43"/>
        <polyline class="cls-12" points="196.14 568.45 196.14 600.64 289.26 600.64 289.26 568.45"/>
        <polyline class="cls-12" points="112.24 458.88 193.61 458.88 285.28 550.55 112.24 550.55"/>
      </g>
      <line class="cls-13" x1="418.96" y1="460.49" x2="418.96" y2="941.65"/>
      <text class="cls-18" transform="translate(581.26 910.62) scale(1.13 1)"><tspan class="cls-14" x="0" y="0">P</tspan><tspan class="cls-15" x="109.8" y="0">O</tspan><tspan class="cls-16" x="233.7" y="0">WERED </tspan><tspan class="cls-19" x="891.99" y="0">B</tspan><tspan class="cls-1" x="1002.09" y="0">Y</tspan><tspan class="cls-15" x="1106.69" y="0"> </tspan><tspan class="cls-17" x="1169.79" y="0">AI</tspan></text>
    </g>
    <text/>
  </g>
</svg>